<?xml version="1.0" encoding="UTF-8"?>
<svg xmlns="http://www.w3.org/2000/svg" width="1200" height="700" viewBox="0 0 1200 700">
<rect width="100%" height="100%" fill="#0F172A"/>
<text x="600" y="55" text-anchor="middle" fill="#38BDF8" font-size="34" font-family="Arial" font-weight="bold">Mechanical AI Engineer Ecosystem</text>
<circle cx="600" cy="120" r="40" fill="#00BFFF"/>
<text x="600" y="128" text-anchor="middle" fill="white" font-size="20" font-family="Arial">⚙</text>
<text x="600" y="180" text-anchor="middle" fill="white" font-size="22" font-family="Arial">Mechanical AI Engineer</text>
<line x1="600" y1="160" x2="180" y2="255" stroke="#38BDF8" stroke-width="2"/>
<circle cx="180" cy="280" r="28" fill="#1E293B" stroke="#38BDF8" stroke-width="2"/>
<text x="180" y="335" text-anchor="middle" fill="white" font-size="18" font-family="Arial">Machine Design</text>
<line x1="600" y1="160" x2="420" y2="255" stroke="#38BDF8" stroke-width="2"/>
<circle cx="420" cy="280" r="28" fill="#1E293B" stroke="#38BDF8" stroke-width="2"/>
<text x="420" y="335" text-anchor="middle" fill="white" font-size="18" font-family="Arial">Manufacturing</text>
<line x1="600" y1="160" x2="780" y2="255" stroke="#38BDF8" stroke-width="2"/>
<circle cx="780" cy="280" r="28" fill="#1E293B" stroke="#38BDF8" stroke-width="2"/>
<text x="780" y="335" text-anchor="middle" fill="white" font-size="18" font-family="Arial">Robotics</text>
<line x1="600" y1="160" x2="1020" y2="255" stroke="#38BDF8" stroke-width="2"/>
<circle cx="1020" cy="280" r="28" fill="#1E293B" stroke="#38BDF8" stroke-width="2"/>
<text x="1020" y="335" text-anchor="middle" fill="white" font-size="18" font-family="Arial">Industry 4.0</text>
<line x1="600" y1="160" x2="350" y2="495" stroke="#38BDF8" stroke-width="2"/>
<circle cx="350" cy="520" r="28" fill="#1E293B" stroke="#38BDF8" stroke-width="2"/>
<text x="350" y="575" text-anchor="middle" fill="white" font-size="18" font-family="Arial">LLMs</text>
<line x1="600" y1="160" x2="600" y2="495" stroke="#38BDF8" stroke-width="2"/>
<circle cx="600" cy="520" r="28" fill="#1E293B" stroke="#38BDF8" stroke-width="2"/>
<text x="600" y="575" text-anchor="middle" fill="white" font-size="18" font-family="Arial">RAG</text>
<line x1="600" y1="160" x2="850" y2="495" stroke="#38BDF8" stroke-width="2"/>
<circle cx="850" cy="520" r="28" fill="#1E293B" stroke="#38BDF8" stroke-width="2"/>
<text x="850" y="575" text-anchor="middle" fill="white" font-size="18" font-family="Arial">Agentic AI</text>
</svg>